# xmcd CD database file
#
# Track frame offsets:
#	150
#	27701
#	48359
#	65230
#	83390
#	102047
#	130928
#	149364
#	160771
#	175434
#	190769
#
# Disc length: 2867 seconds
#
# Revision: 0
# Processed by: cddbd v1.5.2PL0 Copyright (c) Steve Scherf et al.
# Submitted via: Feurio! 1.68 - http://www.feurio.com
#
DISCID=950b310b
DTITLE=Various Artist - Jackpot No. 7 - Back to the Roots
DYEAR=1900
DGENRE=blues
TTITLE0=Paul Whiteman and His Orchestra - My blue heaven (Walter Donaldson - 
TTITLE0=Musik - George Whiting - Text)
TTITLE1=Billy Roberts - Hey Joe (Folksong, Billy Roberts - Musik/Text)
TTITLE2=Michael Heiderich - Walk our way (Michael Heiderich)
TTITLE3=Ray Charles - Hit the road Jack (Percy Mayfield  - Musik/Text)
TTITLE4=Sammy Cahn - Five minutes more (Sammy Cahn/Jule Styn)
TTITLE5=Otis Redding - Dock of the bay (Steve Cropper/Otis Redding)
TTITLE6=Little Willie Littlefield - Kansas City (Jerry Leiber/Mike Stoller)
TTITLE7=The Brian Setzer Orchestra - This cat's on a hot tin roof (Brian 
TTITLE7=Setzer)
TTITLE8=Sy Oliver - Yes indeed (Sy Oliver)
TTITLE9=Chuck Berry - Never can tell (Chuck Berry)
TTITLE10=The Blues Brothers - Everybody needs somebody (Bert Berns, Solomon 
TTITLE10=Burke, Jerry Wexler)
EXTD=aufgenommen und gemischt: Musik and Reklame Michael Heiderich,\r\nJackpot - 
EXTD=Dresden, LC3267, GEMA\r\nMichael Heiderich - guitar/solo-vocals (leader 
EXTD=of Jackpot)\r\nJürgen Heinzmann - trumpet\r\nGeorg Fröde - 
EXTD=drums\r\nJürgen Baum - bass/solo-vocals\r\nFrank Gehrt - 
EXTD=trombone\r\nRainer Clausnitzer - keyboard/vocal\r\nTill Patzer - 
EXTD=saxes/vocal\r\n\r\nArrangements (Titel): \r\nJürgen Heinzmann (1, 4, 5, 
EXTD=6, 8, 9, 10)\r\nHarry Bagdahn (2, 7)\r\nHans-Jörg Hombsch (11)\r\nMichael 
EXTD=Heiderich (3)
EXTT0=
EXTT1=
EXTT2=
EXTT3=
EXTT4=
EXTT5=
EXTT6=
EXTT7=
EXTT8=
EXTT9=
EXTT10=
PLAYORDER=
